HIERARCHY
ROOT Hips
{
	OFFSET 0.000000 103.266502 0.000000
	CHANNELS 6 Xposition Yposition Zposition Xrotation Yrotation Zrotation 
	JOINT Spine
	{
		OFFSET -0.002400 12.777504 0.315300
		CHANNELS 3 Xrotation Yrotation Zrotation
		JOINT Spine1
		{
			OFFSET -0.002067 5.816869 0.032633
			CHANNELS 3 Xrotation Yrotation Zrotation
			JOINT Spine1_split
			{
				OFFSET -0.002067 5.816869 0.032633
				CHANNELS 3 Xrotation Yrotation Zrotation
				JOINT Spine2
				{
					OFFSET -0.002067 5.816869 0.032633
					CHANNELS 3 Xrotation Yrotation Zrotation
					JOINT Neck
					{
						OFFSET -0.003700 21.199493 -0.826900
						CHANNELS 3 Xrotation Yrotation Zrotation
						JOINT Head
						{
							OFFSET 0.000000 20.442200 4.834800
							CHANNELS 3 Xrotation Yrotation Zrotation
							JOINT HeadTop_End
							{
								OFFSET 0.000000 34.668396 4.968400
								CHANNELS 3 Xrotation Yrotation Zrotation
								End Site
								{
									OFFSET 0.000000 0.000000 0.000000
								}
							}
						}
					}
					JOINT LeftShoulder
					{
						OFFSET 3.288150 8.794197 -1.372250
						CHANNELS 3 Xrotation Yrotation Zrotation
						JOINT LeftShoulder_split
						{
							OFFSET 3.288150 8.794197 -1.372250
							CHANNELS 3 Xrotation Yrotation Zrotation
							JOINT LeftArm
							{
								OFFSET 11.953299 -2.279007 -0.146200
								CHANNELS 3 Xrotation Yrotation Zrotation
								JOINT LeftForeArm
								{
									OFFSET 18.448900 0.000000 0.000000
									CHANNELS 3 Xrotation Yrotation Zrotation
									JOINT LeftHand
									{
										OFFSET 29.527798 0.000000 0.000000
										CHANNELS 3 Xrotation Yrotation Zrotation
										JOINT LeftHandThumb1
										{
											OFFSET 10.739754 -2.369614 9.225399
											CHANNELS 3 Xrotation Yrotation Zrotation
											JOINT LeftHandThumb2
											{
												OFFSET 4.926170 -2.844131 2.844125
												CHANNELS 3 Xrotation Yrotation Zrotation
												JOINT LeftHandThumb3
												{
													OFFSET 4.614891 -2.664413 2.664409
													CHANNELS 3 Xrotation Yrotation Zrotation
													JOINT LeftHandThumb4
													{
														OFFSET 4.432465 -2.559082 2.559083
														CHANNELS 3 Xrotation Yrotation Zrotation
														End Site
														{
															OFFSET 0.000000 0.000000 0.000000
														}
													}
												}
											}
										}
										JOINT LeftHandIndex1
										{
											OFFSET 26.467674 0.187653 6.405298
											CHANNELS 3 Xrotation Yrotation Zrotation
											JOINT LeftHandIndex2
											{
												OFFSET 8.792900 0.000000 0.000000
												CHANNELS 3 Xrotation Yrotation Zrotation
												JOINT LeftHandIndex3
												{
													OFFSET 10.075203 0.000000 0.000000
													CHANNELS 3 Xrotation Yrotation Zrotation
													End Site
													{
														OFFSET 0.000000 0.000000 0.000000
													}
												}
											}
										}
										JOINT LeftHandMiddle1
										{
											OFFSET 25.764404 0.000000 0.000000
											CHANNELS 3 Xrotation Yrotation Zrotation
											JOINT LeftHandMiddle2
											{
												OFFSET 9.393974 0.000000 0.000000
												CHANNELS 3 Xrotation Yrotation Zrotation
												JOINT LeftHandMiddle3
												{
													OFFSET 10.771950 0.000000 0.000000
													CHANNELS 3 Xrotation Yrotation Zrotation
													End Site
													{
														OFFSET 0.000000 0.000000 0.000000
													}
												}
											}
										}
										JOINT LeftHandRing1
										{
											OFFSET 24.660927 0.144547 -6.225808
											CHANNELS 3 Xrotation Yrotation Zrotation
											JOINT LeftHandRing2
											{
												OFFSET 9.393799 0.000000 0.000000
												CHANNELS 3 Xrotation Yrotation Zrotation
												JOINT LeftHandRing3
												{
													OFFSET 9.928497 0.000000 0.000000
													CHANNELS 3 Xrotation Yrotation Zrotation
													End Site
													{
														OFFSET 0.000000 0.000000 0.000000
													}
												}
											}
										}
										JOINT LeftHandPinky1
										{
											OFFSET 23.655350 0.125290 -12.815412
											CHANNELS 3 Xrotation Yrotation Zrotation
											JOINT LeftHandPinky2
											{
												OFFSET 8.425102 0.000000 0.000000
												CHANNELS 3 Xrotation Yrotation Zrotation
												JOINT LeftHandPinky3
												{
													OFFSET 8.147003 0.000000 0.000000
													CHANNELS 3 Xrotation Yrotation Zrotation
													End Site
													{
														OFFSET 0.000000 0.000000 0.000000
													}
												}
											}
										}
									}
								}
							}
						}
					}
					JOINT RightShoulder
					{
						OFFSET -3.249400 8.794197 -1.372250
						CHANNELS 3 Xrotation Yrotation Zrotation
						JOINT RightShoulder_split
						{
							OFFSET -3.249400 8.794197 -1.372250
							CHANNELS 3 Xrotation Yrotation Zrotation
							JOINT RightArm
							{
								OFFSET -11.953299 -2.279007 -0.146200
								CHANNELS 3 Xrotation Yrotation Zrotation
								JOINT RightForeArm
								{
									OFFSET -18.448900 0.000000 0.000000
									CHANNELS 3 Xrotation Yrotation Zrotation
									JOINT RightHand
									{
										OFFSET -29.527802 0.000000 0.000000
										CHANNELS 3 Xrotation Yrotation Zrotation
										JOINT RightHandThumb1
										{
											OFFSET -10.739754 -2.369614 9.225399
											CHANNELS 3 Xrotation Yrotation Zrotation
											JOINT RightHandThumb2
											{
												OFFSET -4.926170 -2.844131 2.844125
												CHANNELS 3 Xrotation Yrotation Zrotation
												JOINT RightHandThumb3
												{
													OFFSET -4.614891 -2.664413 2.664409
													CHANNELS 3 Xrotation Yrotation Zrotation
													JOINT RightHandThumb4
													{
														OFFSET -4.432465 -2.559082 2.559083
														CHANNELS 3 Xrotation Yrotation Zrotation
														End Site
														{
															OFFSET 0.000000 0.000000 0.000000
														}
													}
												}
											}
										}
										JOINT RightHandIndex1
										{
											OFFSET -26.467674 0.187653 6.405298
											CHANNELS 3 Xrotation Yrotation Zrotation
											JOINT RightHandIndex2
											{
												OFFSET -8.792900 0.000000 0.000000
												CHANNELS 3 Xrotation Yrotation Zrotation
												JOINT RightHandIndex3
												{
													OFFSET -10.075203 0.000000 0.000000
													CHANNELS 3 Xrotation Yrotation Zrotation
													End Site
													{
														OFFSET 0.000000 0.000000 0.000000
													}
												}
											}
										}
										JOINT RightHandMiddle1
										{
											OFFSET -25.764404 0.000000 0.000000
											CHANNELS 3 Xrotation Yrotation Zrotation
											JOINT RightHandMiddle2
											{
												OFFSET -9.393974 0.000000 0.000000
												CHANNELS 3 Xrotation Yrotation Zrotation
												JOINT RightHandMiddle3
												{
													OFFSET -10.771950 0.000000 0.000000
													CHANNELS 3 Xrotation Yrotation Zrotation
													End Site
													{
														OFFSET 0.000000 0.000000 0.000000
													}
												}
											}
										}
										JOINT RightHandRing1
										{
											OFFSET -24.660927 0.144547 -6.225808
											CHANNELS 3 Xrotation Yrotation Zrotation
											JOINT RightHandRing2
											{
												OFFSET -9.393799 0.000000 0.000000
												CHANNELS 3 Xrotation Yrotation Zrotation
												JOINT RightHandRing3
												{
													OFFSET -9.928497 0.000000 0.000000
													CHANNELS 3 Xrotation Yrotation Zrotation
													End Site
													{
														OFFSET 0.000000 0.000000 0.000000
													}
												}
											}
										}
										JOINT RightHandPinky1
										{
											OFFSET -23.655350 0.125290 -12.815412
											CHANNELS 3 Xrotation Yrotation Zrotation
											JOINT RightHandPinky2
											{
												OFFSET -8.425102 0.000000 0.000000
												CHANNELS 3 Xrotation Yrotation Zrotation
												JOINT RightHandPinky3
												{
													OFFSET -8.147003 0.000000 0.000000
													CHANNELS 3 Xrotation Yrotation Zrotation
													End Site
													{
														OFFSET 0.000000 0.000000 0.000000
													}
												}
											}
										}
									}
								}
							}
						}
					}
				}
			}
		}
	}
	JOINT LeftUpLeg
	{
		OFFSET 11.394100 -6.187798 -0.413800
		CHANNELS 3 Xrotation Yrotation Zrotation
		JOINT LeftLeg
		{
			OFFSET 0.430247 -32.302673 3.732800
			CHANNELS 3 Xrotation Yrotation Zrotation
			JOINT LeftFoot
			{
				OFFSET -0.430247 -48.264931 -6.423300
				CHANNELS 3 Xrotation Yrotation Zrotation
				JOINT LeftToeBase
				{
					OFFSET 4.230900 -16.068199 23.438400
					CHANNELS 3 Xrotation Yrotation Zrotation
					JOINT LeftToe_End
					{
						OFFSET 4.510700 0.695400 19.974600
						CHANNELS 3 Xrotation Yrotation Zrotation
						End Site
						{
							OFFSET 0.000000 0.000000 0.000000
						}
					}
				}
			}
		}
	}
	JOINT RightUpLeg
	{
		OFFSET -11.333700 -6.187798 -0.413800
		CHANNELS 3 Xrotation Yrotation Zrotation
		JOINT RightLeg
		{
			OFFSET -0.430392 -32.302628 3.733000
			CHANNELS 3 Xrotation Yrotation Zrotation
			JOINT RightFoot
			{
				OFFSET 0.430392 -48.264973 -6.423500
				CHANNELS 3 Xrotation Yrotation Zrotation
				JOINT RightToeBase
				{
					OFFSET -4.230900 -16.068199 23.438400
					CHANNELS 3 Xrotation Yrotation Zrotation
					JOINT RightToe_End
					{
						OFFSET -4.510700 0.695400 19.974600
						CHANNELS 3 Xrotation Yrotation Zrotation
						End Site
						{
							OFFSET 0.000000 0.000000 0.000000
						}
					}
				}
			}
		}
	}
}
MOTION
Frames: 4
Frame Time: 0.016667
-0.188530 94.284142 0.075180 -6.091895 -43.084215 -4.028249 5.833596 4.695187 -1.240971 11.836540 9.037612 -3.083966 0.000000 0.000000 0.000000 11.836543 9.037615 -3.083968 -9.907368 -1.416033 0.452971 -0.529823 20.570691 -0.772810 -0.000001 0.000000 0.000000 1.396583 -0.734465 -7.859328 0.000000 0.000000 0.000000 -14.236645 2.407732 -63.256793 9.875222 -47.538366 5.912046 16.118538 0.922162 18.828760 9.163599 4.814100 -5.499022 -0.335362 0.032563 0.783685 0.000010 0.000006 0.000009 -0.000000 0.000000 0.000002 -0.902014 -6.980970 -3.808419 0.033415 0.804257 -16.418988 0.000004 0.000001 0.000000 1.947857 9.683077 -14.539799 -0.456426 -1.565416 -21.881030 -0.000000 0.000000 -0.000001 2.605857 14.896825 -31.345248 -0.576846 -2.712399 -32.011543 -0.000001 0.000000 0.000001 4.170565 18.495025 -34.987337 -0.706785 -5.788631 -39.372916 -0.000003 -0.000000 -0.000001 1.410918 9.461491 9.792762 0.000000 0.000000 0.000000 1.220068 -24.270696 60.532866 -6.660689 41.858432 8.043890 6.225203 12.322295 11.673263 -8.898173 -4.908919 -0.379256 7.904828 -19.192476 -2.856856 0.000001 -0.000004 -0.000005 -0.000002 -0.000000 -0.000000 -1.085505 -1.215488 4.525262 0.142011 -1.115590 16.942621 -0.000000 -0.000000 -0.000001 -0.668343 -2.904959 12.731550 -0.667284 1.816585 30.578774 0.000001 -0.000002 0.000000 2.423621 -7.404553 21.763291 -0.987215 3.762997 37.431206 0.000000 0.000001 0.000004 3.480591 -10.053107 24.322328 -1.457040 7.871396 41.091989 -0.000001 -0.000001 -0.000001 -30.516319 4.881860 14.210183 33.530778 -13.752824 -0.448871 -0.473560 0.480464 -8.776493 -2.319077 -3.216989 0.802954 -0.000000 0.000002 0.000000 -6.231913 -12.840597 -16.893360 32.334860 -9.211621 -0.379904 -18.030043 -3.774891 17.686929 -1.785016 -0.356702 0.333181 -0.000000 -0.000000 0.000000 
0.141774 93.907440 -0.243175 -4.952261 -43.860456 -3.257325 5.933153 4.605801 -1.217699 12.025230 8.854461 -2.993140 0.000000 0.000000 0.000000 12.025235 8.854466 -2.993146 -10.777271 -0.439170 0.984889 -1.745462 21.729755 -1.808205 0.000000 0.000000 0.000000 0.965642 -1.032589 -7.966033 0.000000 0.000000 0.000000 -15.103295 0.865216 -62.925098 10.783030 -44.898180 6.185713 16.918911 -0.292555 19.627068 9.349422 4.758718 -5.688001 -0.198643 0.325454 0.830102 0.000009 0.000008 0.000006 -0.000001 -0.000003 0.000004 -1.019744 -6.725086 -5.312752 -0.024100 0.621132 -18.002338 -0.000000 0.000003 -0.000004 2.038154 9.433249 -15.807848 -0.518309 -1.712256 -23.341905 0.000001 0.000000 -0.000001 2.629688 14.587921 -32.393798 -0.622573 -2.782462 -33.387023 0.000005 -0.000000 -0.000001 4.065086 18.024521 -36.188818 -0.726372 -5.810855 -40.750387 -0.000001 -0.000000 -0.000001 0.953481 9.999497 9.272307 0.000000 0.000000 0.000000 0.949932 -23.054617 60.574557 -5.823114 42.180848 7.329614 6.263651 12.051186 10.451364 -8.629388 -4.893355 -0.125859 7.913485 -19.223977 -2.860432 0.000003 -0.000004 -0.000005 0.000001 -0.000000 -0.000002 -1.072003 -1.312170 5.663833 0.107979 -1.008044 18.067631 -0.000000 -0.000002 0.000000 -0.667784 -2.883313 13.714712 -0.713122 1.892764 31.570975 -0.000000 -0.000003 0.000003 2.379249 -7.310038 22.637171 -1.035015 3.824190 38.329454 0.000000 0.000000 0.000001 3.381063 -9.859287 25.095554 -1.498524 7.918859 41.906503 -0.000002 0.000001 0.000002 -32.289494 4.874245 14.469927 34.558722 -13.358473 -0.394786 -0.522674 0.518467 -8.866035 -2.223156 -3.083351 0.769147 0.000000 -0.000000 0.000000 -8.359965 -10.495353 -16.515273 34.277420 -10.839415 -0.588315 -18.232835 -3.608027 18.239966 -1.784999 -0.356724 0.333185 -0.000000 0.000001 0.000000 
0.699660 93.346207 -0.738974 -3.050116 -44.627411 -1.712493 6.039210 4.446980 -1.256905 12.224172 8.528412 -2.981042 0.000000 0.000000 0.000000 12.224171 8.528401 -2.981035 -12.706017 0.665366 1.229650 -2.359375 22.874640 -2.642887 -0.000000 0.000000 0.000000 0.265572 -1.356439 -8.721381 0.000000 0.000000 0.000000 -15.849128 -0.272489 -61.599113 11.914436 -42.970646 5.909680 17.937615 -1.587097 20.477093 9.860292 4.600714 -6.210166 0.178200 1.135730 0.954699 0.000010 0.000008 0.000011 -0.000002 -0.000002 0.000003 -1.259484 -6.014143 -9.465737 -0.209153 0.123948 -22.380653 0.000000 -0.000001 -0.000002 2.249217 8.742727 -19.308590 -0.708691 -2.109445 -27.382315 0.000006 -0.000002 -0.000000 2.646790 13.741514 -35.282647 -0.757569 -2.970195 -37.190517 -0.000001 -0.000000 -0.000001 3.684844 16.759124 -39.492646 -0.783271 -5.869795 -44.559099 -0.000004 0.000002 0.000005 0.311100 10.730823 8.924908 0.000000 0.000000 0.000000 0.830490 -21.973977 60.244563 -4.994659 43.080001 7.063704 6.221345 11.810340 8.625578 -7.878578 -4.840430 0.584313 7.937768 -19.312208 -2.870398 0.000000 -0.000005 -0.000004 -0.000000 0.000000 -0.000002 -1.004372 -1.581461 8.851899 0.001591 -0.710718 21.217826 0.000001 -0.000001 0.000001 -0.662316 -2.824118 16.467578 -0.848393 2.101715 34.349790 0.000001 -0.000001 -0.000003 2.247675 -7.051100 25.083673 -1.173868 3.991415 40.845153 0.000000 0.000002 -0.000000 3.080876 -9.327124 27.258570 -1.618331 8.048608 44.187786 -0.000000 0.000000 0.000004 -34.957694 4.768371 14.444609 35.832873 -12.796090 -0.316322 -0.383371 0.544592 -8.970571 -2.120710 -2.940644 0.733048 -0.000000 -0.000001 -0.000000 -11.864425 -7.820571 -16.401082 37.225112 -12.424618 -0.807647 -18.515316 -3.410505 18.814663 -1.954011 -0.510385 0.392333 -0.000000 0.000001 0.000000 
1.364853 92.683540 -1.324677 -0.809899 -45.387304 0.151214 6.168112 4.255502 -1.331652 12.470203 8.138656 -3.034279 0.000000 0.000000 0.000000 12.470203 8.138647 -3.034280 -14.888607 1.797577 1.647217 -2.987665 24.094358 -3.539502 0.000000 0.000000 0.000000 -0.375966 -1.611366 -9.419202 0.000000 0.000000 0.000000 -16.940397 -1.632611 -60.270457 12.892809 -40.769068 5.492830 19.195895 -3.354575 21.651911 10.623818 4.348454 -6.998079 0.744555 2.361291 1.132680 0.000009 0.000009 0.000005 -0.000002 0.000002 0.000000 -1.386172 -4.956152 -15.725921 -0.554569 -0.599281 -28.997957 0.000001 0.000002 0.000001 2.463017 7.707534 -24.585483 -1.048236 -2.681539 -33.490494 -0.000002 -0.000001 -0.000000 2.540725 12.492717 -39.622528 -0.984453 -3.235772 -42.938302 0.000002 0.000001 0.000002 2.877046 14.964207 -44.444461 -0.876368 -5.951374 -50.313427 -0.000003 0.000001 -0.000005 -0.442258 11.779068 8.775504 0.000000 0.000000 0.000000 0.563391 -20.903022 59.747920 -4.165699 43.767774 6.786836 6.490507 12.058527 6.153641 -6.731239 -4.732386 1.676329 7.975039 -19.447676 -2.885679 -0.000001 -0.000005 -0.000004 0.000001 0.000000 0.000001 -0.815434 -1.983355 13.748239 -0.192955 -0.266694 26.056465 0.000001 0.000000 -0.000003 -0.642466 -2.735975 20.695287 -1.075435 2.409174 38.618982 0.000000 0.000002 -0.000004 2.025492 -6.670638 28.840242 -1.401014 4.235910 44.710319 -0.000001 0.000001 0.000000 2.559855 -8.543090 30.575314 -1.812411 8.238341 47.693182 -0.000002 0.000002 -0.000000 -38.008500 4.560712 14.358347 37.234503 -12.113895 -0.227760 -0.161104 0.579178 -9.116295 -2.012649 -2.790137 0.694963 0.000000 -0.000000 -0.000000 -16.006169 -5.643964 -16.548012 40.395887 -13.301799 -0.937007 -18.766283 -3.140161 19.239746 -2.113674 -0.667515 0.422020 -0.000000 0.000001 -0.000000 
